<svg viewBox="0 0 512 512" width="512" height="512" xmlns="http://www.w3.org/2000/svg">
  <!-- SOLARFLARE — fire, RARE — radiant solar power, sun-bright
       Mutations: v1 Solar Gold · v2 Bright White · v3 Orange Flame · v4 Deep Yellow
       Signature: round body radiating SUN-RAYS, intense brightness halo
  -->
  <!-- PALETTE
       v1: body-base=#ffd028 body-shadow=#a07810 body-highlight=#fff088 body-stroke=#403008 accent-base=#ffe888 accent-shadow=#a08820 accent-highlight=#ffffd8
       v2: body-base=#fff0c8 body-shadow=#a89880 body-highlight=#ffffff body-stroke=#5a4828 accent-base=#fff8e8 accent-shadow=#a89878 accent-highlight=#ffffff
       v3: body-base=#ff8830 body-shadow=#a04818 body-highlight=#ffb868 body-stroke=#481000 accent-base=#ffc060 accent-shadow=#a07020 accent-highlight=#ffe898
       v4: body-base=#f8c020 body-shadow=#a07810 body-highlight=#ffd860 body-stroke=#403008 accent-base=#ffe060 accent-shadow=#a08820 accent-highlight=#fff8a8
  -->
  <style>
    .body-base       { fill: #ffd028; }
    .body-base       { stroke: #ffd028; }
    .body-shadow     { fill: #a07810; }
    .body-shadow     { stroke: #a07810; }
    .body-highlight  { fill: #fff088; }
    .body-highlight  { stroke: #fff088; }
    .body-stroke     { fill: #403008; }
    .body-stroke     { stroke: #403008; }
    .accent-base     { fill: #ffe888; }
    .accent-base     { stroke: #ffe888; }
    .accent-shadow   { fill: #a08820; }
    .accent-shadow   { stroke: #a08820; }
    .accent-highlight{ fill: #ffffd8; }
    .accent-highlight{ stroke: #ffffd8; }
    .eye-iris        { fill: #ffa030; }
    .eye-pupil       { fill: #1a0800; }
    .eye-highlight   { fill: #ffffff; }
    .eye-sclera      { fill: #fff8e0; }
    .mouth-interior  { fill: #2a0808; }
    .tongue          { fill: #ff8090; }
  </style>

  <!-- INTENSE BRIGHT HALO (rare-tier) -->
  <circle cx="256" cy="296" r="240" class="accent-base" opacity="0.18"/>
  <circle cx="256" cy="296" r="200" class="accent-base" opacity="0.25"/>
  <circle cx="256" cy="296" r="160" class="accent-base" opacity="0.32"/>

  <!-- ═══════ SUN RAYS (signature: 12 rays radiating outward) ═══════ -->
  <g stroke="#ffe888" stroke-width="6" stroke-linecap="round">
    <line x1="256" y1="60" x2="256" y2="120"/>
    <line x1="256" y1="472" x2="256" y2="412"/>
    <line x1="60" y1="296" x2="120" y2="296"/>
    <line x1="452" y1="296" x2="392" y2="296"/>
    <line x1="118" y1="158" x2="160" y2="200"/>
    <line x1="394" y1="434" x2="352" y2="392"/>
    <line x1="118" y1="434" x2="160" y2="392"/>
    <line x1="394" y1="158" x2="352" y2="200"/>
    <line x1="166" y1="86" x2="184" y2="142"/>
    <line x1="346" y1="506" x2="328" y2="450"/>
    <line x1="346" y1="86" x2="328" y2="142"/>
    <line x1="166" y1="506" x2="184" y2="450"/>
  </g>
  <g stroke="#ffffd8" stroke-width="2" stroke-linecap="round">
    <line x1="256" y1="80" x2="256" y2="116"/>
    <line x1="256" y1="476" x2="256" y2="416"/>
    <line x1="80" y1="296" x2="116" y2="296"/>
    <line x1="436" y1="296" x2="396" y2="296"/>
  </g>

  <!-- feet -->
  <ellipse cx="216" cy="436" rx="26" ry="13" class="body-shadow"/>
  <ellipse cx="296" cy="436" rx="26" ry="13" class="body-shadow"/>

  <!-- arms -->
  <ellipse cx="148" cy="306" rx="32" ry="18" class="body-shadow" transform="rotate(-20 148 306)"/>
  <ellipse cx="152" cy="302" rx="26" ry="13" class="body-base"   transform="rotate(-20 152 302)"/>
  <ellipse cx="364" cy="306" rx="32" ry="18" class="body-shadow" transform="rotate(20 364 306)"/>
  <ellipse cx="360" cy="302" rx="26" ry="13" class="body-base"   transform="rotate(20 360 302)"/>

  <!-- body (round, radiant) -->
  <circle cx="256" cy="306" r="116" class="body-shadow"/>
  <circle cx="256" cy="300" r="108" class="body-base"/>
  <!-- sun-burst highlight (cluster of small bright dots) -->
  <circle cx="218" cy="244" r="10" class="body-highlight" opacity="0.7"/>
  <circle cx="232" cy="232" r="6" class="body-highlight" opacity="0.6"/>
  <circle cx="208" cy="262" r="5" class="body-highlight" opacity="0.6"/>

  <!-- ═══════ EYES (fire family — bright sun-themed, multiple highlights) ═══════ -->
  <ellipse cx="220" cy="290" rx="24" ry="26" class="eye-sclera" stroke="none"/>
  <ellipse cx="220" cy="290" rx="20" ry="22" fill="none" stroke="#403008" stroke-width="2.5"/>
  <circle cx="222" cy="296" r="14" class="accent-base"/>
  <circle cx="222" cy="296" r="14" fill="none" stroke="#a07810" stroke-width="1.5"/>
  <circle cx="222" cy="296" r="9" class="eye-iris"/>
  <circle cx="222" cy="296" r="6" class="eye-pupil"/>
  <!-- multiple bright highlights (sun-glint cluster) -->
  <circle cx="226" cy="288" r="3" class="eye-highlight" stroke="none"/>
  <circle cx="216" cy="302" r="2" class="eye-highlight" stroke="none"/>
  <circle cx="230" cy="300" r="1.5" class="eye-highlight" stroke="none" opacity="0.85"/>
  <ellipse cx="292" cy="290" rx="24" ry="26" class="eye-sclera" stroke="none"/>
  <ellipse cx="292" cy="290" rx="20" ry="22" fill="none" stroke="#403008" stroke-width="2.5"/>
  <circle cx="290" cy="296" r="14" class="accent-base"/>
  <circle cx="290" cy="296" r="14" fill="none" stroke="#a07810" stroke-width="1.5"/>
  <circle cx="290" cy="296" r="9" class="eye-iris"/>
  <circle cx="290" cy="296" r="6" class="eye-pupil"/>
  <circle cx="286" cy="288" r="3" class="eye-highlight" stroke="none"/>
  <circle cx="296" cy="302" r="2" class="eye-highlight" stroke="none"/>
  <circle cx="282" cy="300" r="1.5" class="eye-highlight" stroke="none" opacity="0.85"/>

  <!-- mouth: wide bright grin -->
  <path d="M222,338 Q256,360 290,338 Q274,354 256,354 Q238,354 222,338 Z" class="mouth-interior"/>
  <ellipse cx="256" cy="354" rx="14" ry="6" class="tongue" stroke="none"/>

  <!-- cheek warmth -->
  <ellipse cx="178" cy="328" rx="11" ry="7" fill="#ff8030" opacity="0.6" stroke="none"/>
  <ellipse cx="334" cy="328" rx="11" ry="7" fill="#ff8030" opacity="0.6" stroke="none"/>
</svg>
